<?xml version="1.0" standalone="no"?>
<!DOCTYPE svg PUBLIC "-//W3C//DTD SVG 20010904//EN"
 "http://www.w3.org/TR/2001/REC-SVG-20010904/DTD/svg10.dtd">
<svg version="1.0" xmlns="http://www.w3.org/2000/svg"
 width="500.000000pt" height="500.000000pt" viewBox="0 0 500.000000 500.000000"
 preserveAspectRatio="xMidYMid meet">

<g transform="translate(0.000000,500.000000) scale(0.100000,-0.100000)"
fill="#000000" stroke="none">
<path d="M1672 3775 c-475 -311 -870 -565 -878 -565 -12 0 -14 -97 -14 -702 0
-387 3 -713 6 -725 4 -15 252 -169 924 -572 505 -303 923 -551 930 -551 17 0
1550 950 1550 961 0 5 7 9 15 9 13 0 15 100 13 862 l-3 862 -300 178 c-165 97
-301 182 -303 187 -2 6 -10 11 -19 11 -13 0 -126 65 -403 230 -227 135 -628
370 -641 374 -8 3 -394 -243 -877 -559z m1058 419 c0 -2 -9 0 -20 6 -11 6 -20
13 -20 16 0 2 9 0 20 -6 11 -6 20 -13 20 -16z m-380 -19 c0 -2 -10 -9 -22 -15
-22 -11 -22 -10 -4 4 21 17 26 19 26 11z m600 -111 c0 -2 -9 0 -20 6 -11 6
-20 13 -20 16 0 2 9 0 20 -6 11 -6 20 -13 20 -16z m111 -87 c-10 -9 -11 -8 -5
6 3 10 9 15 12 12 3 -3 0 -11 -7 -18z m172 -210 c31 -94 34 -129 12 -147 -19
-16 -53 6 -35 24 21 21 9 38 -55 77 -36 23 -65 45 -65 50 0 24 34 19 75 -10
l43 -31 -19 51 c-11 28 -17 54 -14 60 16 24 33 2 58 -74z m-164 -17 c18 -28
47 -63 63 -79 30 -29 31 -51 1 -51 -8 0 -24 -11 -35 -25 -28 -36 -69 -33 -102
6 -14 17 -26 42 -26 56 0 32 26 63 53 63 20 0 20 0 -1 23 -30 32 -27 52 8 56
3 0 20 -22 39 -49z m-329 16 c0 -2 -8 -10 -17 -17 -16 -13 -17 -12 -4 4 13 16
21 21 21 13z m195 -150 c25 -35 52 -67 60 -70 22 -8 18 -34 -5 -41 -11 -4 -32
-17 -45 -31 -13 -13 -34 -24 -45 -24 -32 0 -80 53 -80 87 0 34 8 46 38 62 22
12 23 14 7 37 -13 20 -14 28 -5 40 16 18 22 14 75 -60z m645 60 c0 -2 -8 -10
-17 -17 -16 -13 -17 -12 -4 4 13 16 21 21 21 13z m-40 -30 c0 -2 -8 -10 -17
-17 -16 -13 -17 -12 -4 4 13 16 21 21 21 13z m-70 -50 c0 -2 -8 -10 -17 -17
-16 -13 -17 -12 -4 4 13 16 21 21 21 13z m310 -22 c0 -2 -9 0 -20 6 -11 6 -20
13 -20 16 0 2 9 0 20 -6 11 -6 20 -13 20 -16z m-350 -8 c0 -2 -8 -10 -17 -17
-16 -13 -17 -12 -4 4 13 16 21 21 21 13z m-616 -89 c45 -55 51 -77 21 -77 -7
0 -27 -13 -43 -30 -17 -16 -35 -30 -41 -30 -14 0 -91 98 -91 115 0 31 30 23
57 -15 31 -44 63 -53 63 -18 0 11 -12 37 -27 56 -25 33 -25 35 -8 48 10 8 19
13 20 11 2 -1 23 -28 49 -60z m576 59 c0 -2 -8 -10 -17 -17 -16 -13 -17 -12
-4 4 13 16 21 21 21 13z m-70 -50 c0 -2 -8 -10 -17 -17 -16 -13 -17 -12 -4 4
13 16 21 21 21 13z m-1010 -10 c0 -2 -8 -10 -17 -17 -16 -13 -17 -12 -4 4 13
16 21 21 21 13z m1690 -32 c0 -2 -9 0 -20 6 -11 6 -20 13 -20 16 0 2 9 0 20
-6 11 -6 20 -13 20 -16z m-720 12 c0 -2 -8 -10 -17 -17 -16 -13 -17 -12 -4 4
13 16 21 21 21 13z m-656 -27 c8 -12 12 -27 9 -34 -3 -8 4 -15 18 -17 13 -2
30 -15 38 -29 13 -24 13 -29 -2 -52 -9 -14 -36 -39 -60 -56 l-44 -30 -57 83
c-31 46 -56 86 -56 89 0 3 19 19 42 36 49 36 91 40 112 10z m616 -3 c0 -2 -8
-10 -17 -17 -16 -13 -17 -12 -4 4 13 16 21 21 21 13z m-70 -50 c0 -2 -8 -10
-17 -17 -16 -13 -17 -12 -4 4 13 16 21 21 21 13z m1006 -37 c3 -6 -5 -3 -20 6
-14 10 -26 19 -26 22 0 7 39 -17 46 -28z m-1046 7 c0 -2 -8 -10 -17 -17 -16
-13 -17 -12 -4 4 13 16 21 21 21 13z m-40 -30 c0 -2 -8 -10 -17 -17 -16 -13
-17 -12 -4 4 13 16 21 21 21 13z m1090 -20 c0 -2 -8 -10 -17 -17 -16 -13 -17
-12 -4 4 13 16 21 21 21 13z m-1160 -30 c0 -2 -8 -10 -17 -17 -16 -13 -17 -12
-4 4 13 16 21 21 21 13z m1120 0 c0 -2 -8 -10 -17 -17 -16 -13 -17 -12 -4 4
13 16 21 21 21 13z m-1716 -47 c14 -11 26 -24 26 -28 0 -4 -18 -20 -40 -37
-44 -33 -49 -44 -20 -44 13 0 24 10 30 25 11 30 40 33 40 5 0 -33 -44 -70 -84
-70 -72 0 -101 87 -47 141 35 34 59 36 95 8z m556 17 c0 -2 -8 -10 -17 -17
-16 -13 -17 -12 -4 4 13 16 21 21 21 13z m1060 0 c0 -2 -8 -10 -17 -17 -16
-13 -17 -12 -4 4 13 16 21 21 21 13z m60 0 c0 -2 -8 -10 -17 -17 -16 -13 -17
-12 -4 4 13 16 21 21 21 13z m-1160 -30 c0 -2 -8 -10 -17 -17 -16 -13 -17 -12
-4 4 13 16 21 21 21 13z m1060 0 c0 -2 -8 -10 -17 -17 -16 -13 -17 -12 -4 4
13 16 21 21 21 13z m60 0 c0 -2 -8 -10 -17 -17 -16 -13 -17 -12 -4 4 13 16 21
21 21 13z m-3180 -32 c0 -2 -9 0 -20 6 -11 6 -20 13 -20 16 0 2 9 0 20 -6 11
-6 20 -13 20 -16z m1380 -49 c28 -41 55 -75 61 -75 6 0 9 -10 7 -22 -2 -13
-10 -23 -18 -23 -8 0 -26 -12 -38 -27 -66 -77 -175 26 -116 110 8 12 24 22 35
22 23 0 24 4 3 35 -13 20 -14 28 -4 40 7 8 14 15 16 15 2 0 26 -34 54 -75z
m-380 61 c0 -2 -8 -10 -17 -17 -16 -13 -17 -12 -4 4 13 16 21 21 21 13z m2080
-10 c0 -2 -8 -10 -17 -17 -16 -13 -17 -12 -4 4 13 16 21 21 21 13z m60 0 c0
-2 -8 -10 -17 -17 -16 -13 -17 -12 -4 4 13 16 21 21 21 13z m-1150 -20 c0 -2
-8 -10 -17 -17 -16 -13 -17 -12 -4 4 13 16 21 21 21 13z m1050 -10 c0 -2 -8
-10 -17 -17 -16 -13 -17 -12 -4 4 13 16 21 21 21 13z m60 0 c0 -2 -8 -10 -17
-17 -16 -13 -17 -12 -4 4 13 16 21 21 21 13z m-1150 -20 c0 -2 -8 -10 -17 -17
-16 -13 -17 -12 -4 4 13 16 21 21 21 13z m1050 -10 c0 -2 -8 -10 -17 -17 -16
-13 -17 -12 -4 4 13 16 21 21 21 13z m60 0 c0 -2 -8 -10 -17 -17 -16 -13 -17
-12 -4 4 13 16 21 21 21 13z m-1150 -20 c0 -2 -8 -10 -17 -17 -16 -13 -17 -12
-4 4 13 16 21 21 21 13z m1050 -10 c0 -2 -8 -10 -17 -17 -16 -13 -17 -12 -4 4
13 16 21 21 21 13z m60 0 c0 -2 -8 -10 -17 -17 -16 -13 -17 -12 -4 4 13 16 21
21 21 13z m-100 -30 c0 -2 -8 -10 -17 -17 -16 -13 -17 -12 -4 4 13 16 21 21
21 13z m60 0 c0 -2 -8 -10 -17 -17 -16 -13 -17 -12 -4 4 13 16 21 21 21 13z
m-1140 -10 c0 -2 -8 -10 -17 -17 -16 -13 -17 -12 -4 4 13 16 21 21 21 13z
m1040 -20 c0 -2 -8 -10 -17 -17 -16 -13 -17 -12 -4 4 13 16 21 21 21 13z
m-1657 -30 c12 -13 35 -38 51 -55 30 -32 28 -50 -6 -55 -9 -1 -26 -15 -40 -30
-20 -23 -30 -28 -51 -22 -39 9 -51 39 -32 76 9 17 23 34 31 37 18 7 18 23 -1
23 -8 0 -22 -11 -31 -26 -20 -29 -40 -18 -29 16 6 19 59 60 78 60 4 0 18 -11
30 -24z m577 20 c0 -2 -8 -10 -17 -17 -16 -13 -17 -12 -4 4 13 16 21 21 21 13z
m-1550 -32 c0 -2 -9 0 -20 6 -11 6 -20 13 -20 16 0 2 9 0 20 -6 11 -6 20 -13
20 -16z m2590 12 c0 -2 -8 -10 -17 -17 -16 -13 -17 -12 -4 4 13 16 21 21 21
13z m-1080 -10 c0 -2 -8 -10 -17 -17 -16 -13 -17 -12 -4 4 13 16 21 21 21 13z
m-1390 -32 c0 -2 -9 0 -20 6 -11 6 -20 13 -20 16 0 2 9 0 20 -6 11 -6 20 -13
20 -16z m716 -36 c4 -13 2 -24 -5 -26 -17 -6 -13 -41 10 -79 12 -18 18 -40 15
-48 -11 -30 -35 -14 -72 46 -29 48 -35 65 -27 78 6 9 16 15 22 14 6 -2 15 6
21 17 14 26 27 25 36 -2z m604 18 c0 -2 -8 -10 -17 -17 -16 -13 -17 -12 -4 4
13 16 21 21 21 13z m-710 -35 c0 -10 -10 -25 -22 -33 l-22 -15 43 -68 c32 -50
41 -73 34 -84 -18 -28 -28 -21 -72 49 -23 38 -46 70 -51 70 -4 0 -13 -7 -20
-15 -16 -20 -36 -19 -44 1 -4 9 -5 18 -4 19 43 37 143 103 149 99 5 -3 9 -13
9 -23z m1810 15 c0 -2 -8 -10 -17 -17 -16 -13 -17 -12 -4 4 13 16 21 21 21 13z
m-1140 -10 c0 -2 -8 -10 -17 -17 -16 -13 -17 -12 -4 4 13 16 21 21 21 13z
m-1080 -10 c0 -2 -8 -10 -17 -17 -16 -13 -17 -12 -4 4 13 16 21 21 21 13z
m2180 -10 c0 -2 -8 -10 -17 -17 -16 -13 -17 -12 -4 4 13 16 21 21 21 13z
m-2225 -24 c-3 -3 -11 0 -18 7 -9 10 -8 11 6 5 10 -3 15 -9 12 -12z m1085 14
c0 -2 -8 -10 -17 -17 -16 -13 -17 -12 -4 4 13 16 21 21 21 13z m1100 -20 c0
-2 -8 -10 -17 -17 -16 -13 -17 -12 -4 4 13 16 21 21 21 13z m-2202 -720 l-3
-691 -2 689 c-3 531 -6 693 -16 705 -11 14 -10 14 6 2 16 -13 17 -57 15 -705z
m1032 690 c0 -2 -8 -10 -17 -17 -16 -13 -17 -12 -4 4 13 16 21 21 21 13z
m1070 0 c0 -2 -8 -10 -17 -17 -16 -13 -17 -12 -4 4 13 16 21 21 21 13z m60 0
c0 -2 -8 -10 -17 -17 -16 -13 -17 -12 -4 4 13 16 21 21 21 13z m-1170 -30 c0
-2 -8 -10 -17 -17 -16 -13 -17 -12 -4 4 13 16 21 21 21 13z m1070 0 c0 -2 -8
-10 -17 -17 -16 -13 -17 -12 -4 4 13 16 21 21 21 13z m60 0 c0 -2 -8 -10 -17
-17 -16 -13 -17 -12 -4 4 13 16 21 21 21 13z m-1170 -30 c0 -2 -8 -10 -17 -17
-16 -13 -17 -12 -4 4 13 16 21 21 21 13z m1070 0 c0 -2 -8 -10 -17 -17 -16
-13 -17 -12 -4 4 13 16 21 21 21 13z m60 0 c0 -2 -8 -10 -17 -17 -16 -13 -17
-12 -4 4 13 16 21 21 21 13z m-100 -30 c0 -2 -8 -10 -17 -17 -16 -13 -17 -12
-4 4 13 16 21 21 21 13z m60 0 c0 -2 -8 -10 -17 -17 -16 -13 -17 -12 -4 4 13
16 21 21 21 13z m-1160 -20 c0 -2 -8 -10 -17 -17 -16 -13 -17 -12 -4 4 13 16
21 21 21 13z m1060 -10 c0 -2 -8 -10 -17 -17 -16 -13 -17 -12 -4 4 13 16 21
21 21 13z m60 0 c0 -2 -8 -10 -17 -17 -16 -13 -17 -12 -4 4 13 16 21 21 21 13z
m-1160 -20 c0 -2 -8 -10 -17 -17 -16 -13 -17 -12 -4 4 13 16 21 21 21 13z
m1060 -10 c0 -2 -8 -10 -17 -17 -16 -13 -17 -12 -4 4 13 16 21 21 21 13z m60
0 c0 -2 -8 -10 -17 -17 -16 -13 -17 -12 -4 4 13 16 21 21 21 13z m-1160 -20
c0 -2 -8 -10 -17 -17 -16 -13 -17 -12 -4 4 13 16 21 21 21 13z m1060 -10 c0
-2 -8 -10 -17 -17 -16 -13 -17 -12 -4 4 13 16 21 21 21 13z m60 0 c0 -2 -8
-10 -17 -17 -16 -13 -17 -12 -4 4 13 16 21 21 21 13z m-100 -30 c0 -2 -8 -10
-17 -17 -16 -13 -17 -12 -4 4 13 16 21 21 21 13z m-1090 -10 c0 -2 -8 -10 -17
-17 -16 -13 -17 -12 -4 4 13 16 21 21 21 13z m-323 -97 c21 -18 17 -59 -7 -59
-11 0 -20 6 -20 14 0 24 -24 24 -83 1 -96 -39 -97 -40 -97 -12 0 20 7 26 45
37 25 7 48 16 50 20 3 5 -18 13 -45 20 -43 10 -50 15 -50 36 l0 24 97 -35 c53
-20 102 -40 110 -46z m1373 77 c0 -2 -8 -10 -17 -17 -16 -13 -17 -12 -4 4 13
16 21 21 21 13z m-1090 -10 c0 -2 -8 -10 -17 -17 -16 -13 -17 -12 -4 4 13 16
21 21 21 13z m-40 -30 c0 -2 -8 -10 -17 -17 -16 -13 -17 -12 -4 4 13 16 21 21
21 13z m1080 -40 c0 -2 -8 -10 -17 -17 -16 -13 -17 -12 -4 4 13 16 21 21 21
13z m-40 -30 c0 -2 -8 -10 -17 -17 -16 -13 -17 -12 -4 4 13 16 21 21 21 13z
m-100 -30 c0 -2 -8 -10 -17 -17 -16 -13 -17 -12 -4 4 13 16 21 21 21 13z m60
0 c0 -2 -8 -10 -17 -17 -16 -13 -17 -12 -4 4 13 16 21 21 21 13z m1147 -598
c-1 -112 -2 -23 -2 197 0 220 1 311 2 203 2 -108 2 -288 0 -400z m-1247 568
c0 -2 -8 -10 -17 -17 -16 -13 -17 -12 -4 4 13 16 21 21 21 13z m60 0 c0 -2 -8
-10 -17 -17 -16 -13 -17 -12 -4 4 13 16 21 21 21 13z m-1254 -21 c4 -8 1 -22
-5 -29 -8 -10 -9 -16 -1 -21 13 -8 13 -50 0 -75 -5 -10 -24 -23 -41 -29 -63
-22 -123 29 -104 88 6 19 2 21 -29 21 -32 0 -36 3 -36 25 0 24 2 24 93 28 50
1 98 4 105 5 7 1 15 -5 18 -13z m1154 -9 c0 -2 -8 -10 -17 -17 -16 -13 -17
-12 -4 4 13 16 21 21 21 13z m60 0 c0 -2 -8 -10 -17 -17 -16 -13 -17 -12 -4 4
13 16 21 21 21 13z m-770 -32 c0 -2 -9 0 -20 6 -11 6 -20 13 -20 16 0 2 9 0
20 -6 11 -6 20 -13 20 -16z m670 2 c0 -2 -8 -10 -17 -17 -16 -13 -17 -12 -4 4
13 16 21 21 21 13z m60 0 c0 -2 -8 -10 -17 -17 -16 -13 -17 -12 -4 4 13 16 21
21 21 13z m-680 -32 c0 -2 -9 0 -20 6 -11 6 -20 13 -20 16 0 2 9 0 20 -6 11
-6 20 -13 20 -16z m70 0 c0 -2 -9 0 -20 6 -11 6 -20 13 -20 16 0 2 9 0 20 -6
11 -6 20 -13 20 -16z m510 2 c0 -2 -8 -10 -17 -17 -16 -13 -17 -12 -4 4 13 16
21 21 21 13z m60 0 c0 -2 -8 -10 -17 -17 -16 -13 -17 -12 -4 4 13 16 21 21 21
13z m-100 -30 c0 -2 -8 -10 -17 -17 -16 -13 -17 -12 -4 4 13 16 21 21 21 13z
m60 0 c0 -2 -8 -10 -17 -17 -16 -13 -17 -12 -4 4 13 16 21 21 21 13z m-100
-30 c0 -2 -8 -10 -17 -17 -16 -13 -17 -12 -4 4 13 16 21 21 21 13z m60 0 c0
-2 -8 -10 -17 -17 -16 -13 -17 -12 -4 4 13 16 21 21 21 13z m-100 -30 c0 -2
-8 -10 -17 -17 -16 -13 -17 -12 -4 4 13 16 21 21 21 13z m-954 -41 c4 -8 1
-22 -5 -29 -8 -10 -9 -16 -1 -21 13 -8 13 -50 0 -75 -5 -10 -24 -23 -41 -29
-63 -22 -123 29 -104 88 6 19 2 21 -29 21 -32 0 -36 3 -36 25 0 24 2 24 93 28
50 1 98 4 105 5 7 1 15 -5 18 -13z m914 11 c0 -2 -8 -10 -17 -17 -16 -13 -17
-12 -4 4 13 16 21 21 21 13z m-100 -72 c0 -2 -9 0 -20 6 -11 6 -20 13 -20 16
0 2 9 0 20 -6 11 -6 20 -13 20 -16z m28 -715 l-3 -694 -5 702 c-3 386 -2 699
3 694 4 -4 6 -320 5 -702z m-846 566 c-4 -26 -4 -34 4 -71 8 -44 -22 -64 -98
-64 -55 0 -58 1 -58 25 0 22 4 24 58 27 49 3 57 6 57 23 0 17 -8 20 -57 23
-54 3 -58 5 -58 27 0 22 4 24 63 28 88 5 92 4 89 -18z m-16 -186 c12 -14 19
-40 22 -85 l4 -64 -111 0 -111 0 0 60 c0 47 4 64 20 80 21 21 46 25 69 11 10
-6 22 -5 35 5 28 19 50 18 72 -7z m-46 -319 c0 -49 3 -58 15 -54 16 7 20 44 6
60 -5 5 -6 17 -2 28 7 17 8 17 24 2 61 -62 -1 -163 -83 -135 -62 22 -73 105
-18 143 45 32 58 22 58 -44z m2230 -5 c0 -2 -10 -9 -22 -15 -22 -11 -22 -10
-4 4 21 17 26 19 26 11z m-2164 -140 c4 -8 1 -21 -4 -28 -7 -8 -7 -18 -2 -27
6 -8 10 -25 10 -38 0 -19 -3 -21 -19 -12 -11 5 -21 20 -23 32 -2 19 -10 24
-42 26 -22 2 -54 13 -70 25 l-31 22 75 6 c41 3 81 6 88 7 7 1 15 -5 18 -13z
m1954 10 c0 -2 -10 -9 -22 -15 -22 -11 -22 -10 -4 4 21 17 26 19 26 11z m-210
-130 c0 -2 -10 -9 -22 -15 -22 -11 -22 -10 -4 4 21 17 26 19 26 11z m-210
-130 c0 -2 -10 -9 -22 -15 -22 -11 -22 -10 -4 4 21 17 26 19 26 11z"/>
<path d="M3024 3676 c-11 -28 1 -51 27 -54 34 -4 46 24 23 49 -20 23 -43 24
-50 5z"/>
<path d="M2866 3554 c-15 -38 37 -72 62 -41 9 10 7 19 -4 35 -18 26 -49 29
-58 6z"/>
<path d="M2549 3391 c-19 -15 -21 -22 -12 -32 14 -14 41 -5 50 16 10 28 -12
37 -38 16z"/>
<path d="M2592 3324 c-18 -13 -21 -19 -11 -30 16 -19 25 -18 49 6 35 35 5 54
-38 24z"/>
<path d="M2352 3188 c-12 -12 -17 -38 -6 -38 3 0 17 9 30 19 20 16 21 20 8 25
-20 8 -18 8 -32 -6z"/>
<path d="M2202 3071 c-8 -5 -12 -21 -10 -37 2 -23 9 -30 30 -32 35 -4 48 30
22 59 -19 21 -23 22 -42 10z"/>
<path d="M2072 2918 c-18 -18 -15 -40 6 -36 9 2 18 13 20 26 4 24 -7 29 -26
10z"/>
<path d="M1633 2334 c-9 -24 10 -49 37 -49 27 0 46 25 37 49 -4 10 -18 16 -37
16 -19 0 -33 -6 -37 -16z"/>
<path d="M1633 2134 c-9 -24 10 -49 37 -49 27 0 46 25 37 49 -4 10 -18 16 -37
16 -19 0 -33 -6 -37 -16z"/>
<path d="M1660 1730 c0 -33 4 -40 19 -40 12 0 20 9 24 27 7 36 -1 53 -24 53
-15 0 -19 -7 -19 -40z"/>
<path d="M1577 1753 c-4 -3 -7 -19 -7 -35 0 -23 4 -28 25 -28 22 0 25 4 25 35
0 27 -4 35 -18 35 -10 0 -22 -3 -25 -7z"/>
<path d="M1627 1483 c-12 -11 -8 -40 8 -53 13 -11 15 -7 15 24 0 34 -8 44 -23
29z"/>
</g>
</svg>
